HIERARCHY
ROOT Hips
{
    OFFSET 0.000000 0.000000 0.000000
    CHANNELS 6 Xposition Yposition Zposition Zrotation Xrotation Yrotation
    JOINT Spine
    {
        OFFSET -0.000000 7.810951 0.000000
        CHANNELS 3 Zrotation Xrotation Yrotation
        JOINT Spine1
        {
            OFFSET -0.000000 18.868288 0.000000
            CHANNELS 3 Zrotation Xrotation Yrotation
            JOINT Neck
            {
                OFFSET -0.000000 18.790800 1.708255
                CHANNELS 3 Zrotation Xrotation Yrotation
                JOINT Head
                {
                    OFFSET -0.000000 13.335769 -1.905110
                    CHANNELS 3 Zrotation Xrotation Yrotation
                    End Site
                    {
                        OFFSET -0.000000 23.813873 0.000000
                    }
                }
            }
            JOINT LeftShoulder
            {
                OFFSET 3.868973 15.461964 -0.252686
                CHANNELS 3 Zrotation Xrotation Yrotation
                JOINT LeftArm
                {
                    OFFSET 15.258958 0.000000 0.000000
                    CHANNELS 3 Zrotation Xrotation Yrotation
                    JOINT LeftForeArm
                    {
                        OFFSET 27.600050 0.000000 0.000000
                        CHANNELS 3 Zrotation Xrotation Yrotation
                        JOINT LeftHand
                        {
                            OFFSET 23.737446 0.000000 0.000000
                            CHANNELS 3 Zrotation Xrotation Yrotation
                            End Site
                            {
                                OFFSET 14.288324 0.000000 0.000000
                            }
                        }
                    }
                }
            }
            JOINT RightShoulder
            {
                OFFSET -3.750262 15.461964 -0.252686
                CHANNELS 3 Zrotation Xrotation Yrotation
                JOINT RightArm
                {
                    OFFSET -15.258958 0.000000 0.000000
                    CHANNELS 3 Zrotation Xrotation Yrotation
                    JOINT RightForeArm
                    {
                        OFFSET -27.600050 0.000000 0.000000
                        CHANNELS 3 Zrotation Xrotation Yrotation
                        JOINT RightHand
                        {
                            OFFSET -23.737446 0.000000 0.000000
                            CHANNELS 3 Zrotation Xrotation Yrotation
                            End Site
                            {
                                OFFSET -14.288324 0.000000 0.000000
                            }
                        }
                    }
                }
            }
        }
    }
    JOINT LeftUpLeg
    {
        OFFSET 9.525549 0.000000 0.000000
        CHANNELS 3 Zrotation Xrotation Yrotation
        JOINT LeftLeg
        {
            OFFSET -0.000000 -45.198063 0.000000
            CHANNELS 3 Zrotation Xrotation Yrotation
            JOINT LeftFoot
            {
                OFFSET -0.000000 -37.850700 0.000000
                CHANNELS 3 Zrotation Xrotation Yrotation
                JOINT LeftToeBase
                {
                    OFFSET -0.000000 -6.191607 14.288324
                    CHANNELS 3 Zrotation Xrotation Yrotation
                    End Site
                    {
                        OFFSET -0.000000 0.000000 3.810220
                    }
                }
            }
        }
    }
    JOINT RightUpLeg
    {
        OFFSET -9.525549 0.000000 0.000000
        CHANNELS 3 Zrotation Xrotation Yrotation
        JOINT RightLeg
        {
            OFFSET -0.000000 -45.198063 0.000000
            CHANNELS 3 Zrotation Xrotation Yrotation
            JOINT RightFoot
            {
                OFFSET -0.000000 -37.850700 0.000000
                CHANNELS 3 Zrotation Xrotation Yrotation
                JOINT RightToeBase
                {
                    OFFSET -0.000000 -6.191607 14.288324
                    CHANNELS 3 Zrotation Xrotation Yrotation
                    End Site
                    {
                        OFFSET -0.000000 0.000000 3.810220
                    }
                }
            }
        }
    }
}
MOTION
Frames:    9
Frame Time:    0.008333
-15.799536    91.325310    -33.656479    -14.849155    -10.205565    -179.729935    -6.749323    -6.368727    -1.354756    -0.278189    10.845036    -0.952455    9.358253    21.328161    -6.721136    4.919243    10.452258    -6.290606    10.912018    10.893417    -11.084259    -51.890202    21.697298    -36.573360    3.776661    -12.701529    -17.889265    -1.005348    -12.138106    1.996736    -4.722857    7.953813    -1.785905    52.211575    38.307461    16.680592    -4.924151    -8.654988    39.779293    2.041301    -6.954601    -3.699997    142.053238    -74.560104    140.165100    -109.457207    67.744057    75.014763    7.631138    -24.393763    34.600380    0.000000    0.000000    0.000000    -13.864451    -14.128801    -1.649204    2.720812    13.341754    13.240588    -11.312871    -11.880726    -24.293682    0.000000    0.000000    0.000000    
-15.893981    91.373428    -34.012760    -15.068744    -10.021420    179.876099    -6.812600    -6.439188    -1.391655    -0.259296    10.981618    -0.983055    9.406595    21.469290    -6.734323    4.915946    10.398563    -6.286839    10.919704    10.923587    -11.070335    -51.939716    21.771910    -36.483322    3.842519    -12.583142    -17.543343    -1.319316    -12.025021    1.885643    -4.813052    7.827688    -1.807281    52.600731    38.455135    16.214527    -4.865924    -8.666425    39.732128    2.196348    -6.994111    -3.692088    142.582397    -74.192825    140.534958    -108.033691    67.892754    74.804832    7.334485    -24.054276    33.873955    0.000000    0.000000    0.000000    -14.078402    -13.775413    -1.625358    2.721445    13.198019    13.034348    -10.933195    -12.047605    -23.910074    0.000000    0.000000    0.000000    
-15.972209    91.419647    -34.381187    -15.217439    -9.789443    179.462448    -6.813798    -6.474845    -1.415418    -0.256060    11.140263    -1.004554    9.026200    21.066389    -6.662526    5.514735    11.332522    -6.281663    10.868482    10.984969    -10.968392    -52.089905    21.579952    -36.430599    3.856822    -12.459318    -17.248749    -1.674758    -11.913290    1.806081    -4.784124    7.820180    -1.918027    52.624432    38.747700    16.037159    -4.717524    -8.731891    39.677887    1.924371    -7.106877    -3.687890    142.531998    -73.841949    140.199661    -106.302795    67.966606    73.071602    7.296060    -23.692596    34.081738    0.000000    0.000000    0.000000    -14.189007    -13.480769    -2.248985    2.513656    13.296688    13.589318    -10.489066    -12.208924    -23.581083    0.000000    0.000000    0.000000    
-16.070145    91.454483    -34.732468    -15.425934    -9.622884    179.001678    -6.886368    -6.497834    -1.400136    -0.218056    11.165194    -0.987517    9.009253    21.134949    -6.652965    5.645199    11.395555    -6.263957    10.850738    11.073617    -10.930689    -52.146156    21.658144    -36.398685    3.997751    -12.341351    -16.924427    -1.761498    -11.785205    1.700585    -4.761171    7.837890    -2.087042    52.836353    38.685307    15.769213    -4.644421    -8.558720    39.549389    2.244365    -6.976283    -3.736051    142.666855    -73.465729    140.143494    -104.551254    68.100105    71.958633    7.314911    -23.268147    33.810101    0.000000    0.000000    0.000000    -14.411039    -13.211310    -2.441876    2.469046    13.245943    13.849924    -10.089643    -12.400220    -23.342657    0.000000    0.000000    0.000000    
-16.154900    91.492844    -35.105148    -15.588198    -9.387584    178.526398    -6.929111    -6.524778    -1.385360    -0.185282    11.283223    -0.971658    9.179733    21.184179    -6.713906    5.504686    11.451441    -6.323840    10.852457    11.152389    -10.839146    -52.332314    21.540407    -36.368713    4.090745    -12.199607    -16.644497    -2.125646    -11.647955    1.869110    -4.728314    7.865838    -2.224817    52.930943    38.656704    15.529644    -4.426650    -8.396158    39.503784    2.129565    -6.889040    -3.724289    142.236313    -73.172493    139.426712    -102.733315    68.037849    70.882950    6.891464    -22.887058    33.442669    0.000000    0.000000    0.000000    -14.574126    -12.849283    -2.463027    2.455165    13.128767    13.951435    -9.688632    -12.532133    -23.098358    0.000000    0.000000    0.000000    
-16.218557    91.529480    -35.479748    -15.660849    -9.150409    178.115723    -6.847714    -6.526465    -1.425277    -0.219862    11.389649    -1.012526    9.052926    21.415184    -6.613437    5.791426    11.172565    -6.178058    10.899106    11.237933    -10.668354    -52.439816    21.538271    -36.348911    4.141733    -12.034786    -16.379128    -2.090672    -11.485711    1.934820    -4.715769    7.895410    -2.297609    53.096237    38.810757    15.259469    -4.385720    -8.393308    39.478832    2.287690    -6.908365    -3.793806    141.965881    -72.929550    138.908234    -100.662254    68.114342    69.503647    6.937051    -22.271240    33.021175    0.000000    0.000000    0.000000    -14.646907    -12.461331    -2.544941    2.435921    13.015544    14.103358    -9.358656    -12.611117    -22.835558    0.000000    0.000000    0.000000    
-16.294613    91.534386    -35.866920    -15.748690    -8.867526    177.689835    -6.795310    -6.574682    -1.461137    -0.233947    11.637834    -1.046524    9.246534    21.178146    -6.641051    5.481810    11.615368    -6.254246    10.989175    11.300573    -10.512613    -52.763283    21.363577    -36.271660    4.256424    -11.815290    -16.184702    -2.235358    -11.260262    1.991363    -4.725887    7.890653    -2.346210    53.282295    38.868069    14.986695    -4.390943    -8.347532    39.424126    2.614644    -6.875017    -3.853448    141.465118    -72.738792    138.248840    -98.721085    68.242256    67.974266    6.770439    -21.549574    32.945789    0.000000    0.000000    0.000000    -14.755917    -12.014113    -2.581683    2.443343    12.885893    14.195622    -9.051890    -12.837070    -22.549723    0.000000    0.000000    0.000000    
-16.370001    91.589828    -36.181374    -15.877661    -8.765997    177.052750    -6.775485    -6.597061    -1.387270    -0.233999    11.555357    -0.972677    9.356927    21.395025    -6.665175    5.394434    11.440791    -6.249491    10.999857    11.411424    -10.448006    -53.038929    21.191599    -36.080090    4.368780    -11.683403    -16.099663    -2.561280    -11.124077    2.121735    -4.695480    8.008625    -2.437356    53.469856    38.854958    14.763691    -4.433844    -8.288034    39.238861    2.784681    -6.812769    -3.812712    140.542969    -72.414551    137.105347    -96.323074    68.279510    66.045258    6.324374    -20.966867    32.572868    0.000000    0.000000    0.000000    -14.872188    -11.896955    -2.427832    2.467808    12.784586    14.189096    -8.717780    -12.803463    -22.219126    0.000000    0.000000    0.000000    
-16.433693    91.620415    -36.551201    -15.940619    -8.623270    176.598785    -6.716588    -6.746686    -1.436309    -0.186527    11.722659    -1.020844    9.443790    21.754738    -6.708786    5.280301    10.964016    -6.239740    11.007423    11.493818    -10.242746    -53.167240    21.291180    -35.949989    4.570217    -11.680210    -16.099274    -2.845329    -11.101686    2.270445    -4.772496    7.988528    -2.440525    53.770836    38.824097    14.389091    -4.350106    -8.169032    39.184486    2.875802    -6.732100    -3.962232    140.026871    -72.229599    136.410660    -93.899063    68.380501    64.183945    5.769106    -20.142395    32.065601    0.000000    0.000000    0.000000    -14.972520    -11.540371    -2.476390    2.530624    12.492458    14.257425    -8.443805    -12.819925    -21.889805    0.000000    0.000000    0.000000    
